    <svg xmlns="http://www.w3.org/2000/svg" width="127.911" height="73" viewBox="0 0 127.911 73"  fill="#FFFFFF">
                                    <g id="LeVUkR01" transform="translate(-86 148.9)">
                                        <path id="Path_1" data-name="Path 1" d="M143.7-142.2c-3.1,3.7-9,10.2-13,14.5l-7.2,7.8-14-5.5c-7.7-2.9-14.7-5.7-15.7-6.1-1.2-.5-.8,1.4,2.1,8.7,2.1,5.2,5.3,13.3,7.1,18.1l3.3,8.7h87.2l6.3-16.3c3.5-8.9,6.6-17,6.9-17.9.4-1.3-3.1-.2-15.2,4.4-9.1,3.5-16,5.6-16.4,5.1-.7-1.2-25.3-28.3-25.5-28.2C149.6-148.9,146.9-145.9,143.7-142.2Zm21.1,16.5c13.7,15.1,14.2,15.6,14.2,12.3s.2-3.4,7.8-6.1c4.2-1.5,9.4-3.6,11.6-4.6,3.8-1.8,3.8-1.8,2.2,0-1,1.1-3.7,6.8-6,12.8l-4.3,10.8-40.4.2-40.4.3-4.6-12c-2.6-6.6-4.4-12-4.1-12s5,1.7,10.4,3.7l10,3.8-.6,3.2c-.4,3,.7,4.7,1.6,2.4.5-1.5,27.3-31.1,27.9-30.8C150.4-141.6,157-134.4,164.8-125.7Z" />
                                        <path id="Path_2" data-name="Path 2" d="M142-120.5c0,3.3.2,3.5,3.5,3.5s3.5-.2,3.5-3.5-.2-3.5-3.5-3.5S142-123.8,142-120.5Z" />
                                        <path id="Path_3" data-name="Path 3" d="M151-120.5c0,3.2.2,3.5,3,3.5,2.3,0,3-.5,3-1.9a12.807,12.807,0,0,1,.6-3.5c.5-1.3-.1-1.6-3-1.6C151.2-124,151-123.9,151-120.5Z" />
                                        <path id="Path_4" data-name="Path 4" d="M142.5-115.2a7.611,7.611,0,0,0-.5,3.4c0,2.5.3,2.8,3.5,2.8s3.5-.3,3.5-2.9c0-2.4-.5-2.9-3-3.3A7.544,7.544,0,0,0,142.5-115.2Z" />
                                        <path id="Path_5" data-name="Path 5" d="M153.8-115.2c-2.3.3-2.8.8-2.8,3.3,0,2.6.3,2.9,3.5,2.9,3.4,0,3.4-.1,2.8-3.3a18.105,18.105,0,0,0-.7-3.2C156.5-115.5,155.3-115.4,153.8-115.2Z" />
                                        <path id="Path_6" data-name="Path 6" d="M95.7-91.1A11.2,11.2,0,0,0,92-87.5l-2,3v-3.3c0-2.5-.4-3.2-2-3.2-1.8,0-2,.7-2,7.5s.2,7.5,2,7.5c1.6,0,2-.7,2-3.7v-3.8l2.5,3.8c1.6,2.2,3.4,3.7,4.6,3.7,1.9,0,1.9-.3-1-4.1l-3-4.2,2.6-3.4C98.5-91.3,98.5-92.1,95.7-91.1Z" />
                                        <path id="Path_7" data-name="Path 7" d="M118.1-91.1c-.9.6-1.2,2.4-1,5.5.2,2.5.3,4.6.3,4.6-.1,0-1.6-2.3-3.4-5-2-3.1-3.9-5-5.1-5-1.7,0-1.9.8-1.9,7.5,0,6,.3,7.5,1.5,7.5s1.5-1.3,1.5-5.7v-5.7l3.6,5.7c5,8,6.6,7.4,6.6-2.1C120.2-91.8,120.1-92.3,118.1-91.1Z" />
                                        <path id="Path_8" data-name="Path 8" d="M127.5-90.8c-3.1,1.7-4.5,3.9-4.5,7.4,0,5.2,6.1,8.8,11.4,6.8,1.1-.4,1.6-1.9,1.6-4.5,0-3.7-.2-3.9-3-3.9q-3,0-3,1.5a1.538,1.538,0,0,0,1.5,1.5,1.538,1.538,0,0,1,1.5,1.5c0,2.6-4.9,1.8-6.2-1-.9-1.9-.7-2.9.6-5.1,1.5-2.2,2.2-2.5,5.2-1.9,3.8.7,4.1.4,1.8-1.9C132.6-92.3,130.3-92.4,127.5-90.8Z" />
                                        <path id="Path_9" data-name="Path 9" d="M145-83.8c0,6.3.3,7.8,1.5,7.8,1,0,1.5-1.1,1.5-3.5,0-3.2.2-3.5,3-3.5s3,.3,3,3.5c0,2.8.4,3.5,2,3.5,1.8,0,2-.7,2-7.5s-.2-7.5-2-7.5c-1.6,0-2,.7-2,3,0,2.7-.3,3-3,3s-3-.3-3-3.3c0-2.3-.5-3.4-1.5-3.4C145.3-91.7,145-90.1,145-83.8Z" />
                                        <path id="Path_10" data-name="Path 10" d="M164-90.7c-3.5,1.8-4.9,7.7-2.6,11.1a7.141,7.141,0,0,0,12.7-1.1C176.7-87.6,170.3-94,164-90.7Zm5.9,3.1c1.7,2,1,6.7-1.1,7.9-2.3,1.5-4.8-.8-4.8-4.2C164-88.4,167.5-90.5,169.9-87.6Z" />
                                        <path id="Path_11" data-name="Path 11" d="M177-85.6c0,4.8.4,6.7,1.8,7.9,2.4,2.2,6.5,2.1,8.5-.1,2.2-2.4,2.4-12.7.2-13.5-1.1-.5-1.5.7-1.7,5.6-.3,5.5-.5,6.2-2.5,6.5-2.6.4-3.8-2.7-3.1-8.2.3-2.7,0-3.6-1.4-3.9C177.2-91.8,177-91.1,177-85.6Z" />
                                        <path id="Path_12" data-name="Path 12" d="M194.3-91c-3.7,1.5-3,5.6,1.2,8.1,4,2.4,3.7,4.3-.7,3.7-2.2-.4-2.8-.1-2.6,1.1.4,2,5,2.6,7.8,1.1,3.3-1.7,2.6-5.5-1.6-7.9-4-2.4-3.6-4.6.7-3.7,2,.4,2.8.2,2.6-.7C201.2-92,198.3-92.6,194.3-91Z" />
                                        <path id="Path_13" data-name="Path 13" d="M208.3-91.3l-4.2.4.2,7.5.1,7.5,4.5-.3c5.1-.3,7.1-2.8,2.2-2.8-2.5,0-3.1-.4-3.1-2.1,0-1.8.4-2,2.5-1.5,1.8.5,2.5.2,2.5-.9,0-.9-.9-1.5-2.5-1.5-1.9,0-2.5-.5-2.5-2.1,0-1.8.4-2,2.5-1.5,2,.5,2.5.3,2.5-1.4,0-1.1-.1-1.9-.2-1.8C212.6-91.7,210.6-91.5,208.3-91.3Z" />
                                        <path id="Path_14" data-name="Path 14" d="M100-83.5c0,6.8.2,7.5,2,7.5s2-.7,2-7.5-.2-7.5-2-7.5S100-90.3,100-83.5Z" />
                                    </g>
                                </svg>
